<svg xmlns="http://www.w3.org/2000/svg" xmlns:xlink="http://www.w3.org/1999/xlink" version="1.1" width="1080pt" height="1080pt" viewBox="0 0 1080 1080">
<defs>
<clipPath id="clip_1">
<path transform="matrix(1,0,0,-1,0,1080)" d="M0 1080H1080V0H0Z"/>
</clipPath>
</defs>
<g id="layer_1" data-name="Layer">
<g clip-path="url(#clip_1)">
<path transform="matrix(1,0,0,-1,1049.8142,510.0161)" d="M0 0V0C.802-.322 1.719 .041 2.087 .823 2.589 1.891 2.649 3.096 2.205 4.142 1.504 5.795-.153 6.334-.339 6.392-.515 6.446-1.581 6.759-2.796 6.374-5.298 5.581-5.988 2.606-6.028 2.424L-4.741 1.907-9.249-3.298C-9.247-3.299-9.245-3.3-9.243-3.301-11.146-5.826-14.102-9.702-17.802-14.349-55.789-62.064-96.28-112.458-154.118-125.407-227.786-141.9-292.725-94.815-307.325-22.078-310.925-4.146-315.613 54.473-292.398 61.462-263.473 70.17-230.339 15.934-202.995 12.066-168.969 7.253-135.042 45.309-107.356 60.517-107.253 60.574-107.146 60.621-107.035 60.659-101.173 62.654-94.574 61.005-88.758 57.611-88.758 57.611-80.707 53.54-75.101 43.956-60.111 18.329-73.585-50.336-79.34-49.648-80.971-49.453-81.347-43.761-81.45-37.211-81.461-36.49-80.996-35.834-80.301-35.64-79.242-35.343-78.185-34.961-77.151-34.468-76.026-33.931-73.108-32.539-73.322-31.732-73.516-30.999-76.286-30.821-79.806-30.989-80.723-31.033-81.499-30.302-81.505-29.384-81.543-22.944-81.691-17.442-82.896-17.367-84.147-17.289-86.456-23.057-87.182-30.459-87.255-31.2-87.809-31.8-88.544-31.92-92.401-32.55-95.476-33.394-95.48-34.195-95.485-34.962-92.668-36.109-88.777-36.425-87.976-36.49-87.362-37.144-87.305-37.945-86.958-42.899-85.683-47.961-82.85-52.144-81.89-53.562-79.558-57.005-76.878-56.76-72.709-56.38-70.43-47.324-69.553-43.839-66.885-33.239-50.3 50.413-80.637 64.987-121.591 84.66-157.193 15.494-193.753 23.04-206.064 25.581-223.346 47.506-234.04 56.171-253.949 72.303-273.19 79.222-298.596 70.746-333.909 58.965-340.628 26.538-338.692-6.769-334.937-71.33-239.66-147.211-158.235-132.506-103.144-122.557-58.198-71.939-54.245-67.391-51.497-64.23-39.713-50.341-25.52-32.101-15.444-19.152-7.392-8.172-1.913-.549-1.478 .057-.692 .278 0 0"/>
<path transform="matrix(1,0,0,-1,130.7522,554.7943)" d="M0 0C0-16.699-17.247-29.565-48.592-29.565-70.766-29.565-90.614-22.584-103.07-9.034L-97.869-3.969C-86.097-16.973-68.713-22.859-48.318-22.859-21.901-22.859-7.254-13.414-7.254-.41-7.254 12.867-23.269 16.563-50.782 19.164-75.557 21.491-99.648 26.693-99.648 44.76-99.648 62.281-76.652 71.999-52.014 71.999-31.208 71.999-15.057 65.292-5.064 55.163L-10.676 50.509C-20.258 60.776-34.767 65.156-51.74 65.292-70.219 65.429-92.256 58.996-92.256 44.897-92.256 31.621-72.272 28.062-48.318 25.871-19.71 23.407 0 17.932 0 0"/>
<path transform="matrix(1,0,0,-1,254.9006,533.5767)" d="M0 0C0 28.06-19.711 44.075-49.824 44.075-80.075 44.075-99.785 28.06-99.785 0-99.785-28.061-80.075-44.076-49.824-44.076-19.711-44.076 0-28.061 0 0M-107.04 0C-107.04 30.934-85.823 50.782-49.824 50.782-13.825 50.782 7.391 30.934 7.391 0 7.391-30.936-13.825-50.783-49.824-50.783-85.823-50.783-107.04-30.936-107.04 0"/>
<path transform="matrix(1,0,0,-1,351.3968,536.4518)" d="M0 0C17.657 0 28.744 7.802 28.744 22.175 28.744 36.41 17.657 44.213 0 44.213H-55.3V0ZM29.702-45.033-3.833-6.57H-55.162V-45.033H-62.417V50.783H.41C21.763 50.783 35.999 40.106 35.999 22.175 35.999 5.338 23.68-5.064 4.928-6.433L39.011-45.033Z"/>
<path transform="matrix(1,0,0,-1,477.4593,536.4518)" d="M0 0C17.657 0 28.744 7.802 28.744 22.175 28.744 36.41 17.657 44.213 0 44.213H-55.3V0ZM29.702-45.033-3.833-6.57H-55.162V-45.033H-62.417V50.783H.411C21.763 50.783 35.999 40.106 35.999 22.175 35.999 5.338 23.68-5.064 4.928-6.433L39.011-45.033Z"/>
<path transform="matrix(1,0,0,-1,0,1080)" d="M541.105 594.331H548.22299V498.51499H541.105Z"/>
<path transform="matrix(1,0,0,-1,672.6429,574.77786)" d="M0 0V-6.707H-90.203V89.109H-1.368V82.539H-83.085V45.445H-13.003V38.737H-83.085V0Z"/>
<path transform="matrix(1,0,0,-1,44.9432,612.97)" d="M0 0C0 4.524-3.178 7.108-8.035 7.108-12.912 7.108-16.091 4.524-16.091 0-16.091-4.526-12.912-7.108-8.035-7.108-3.178-7.108 0-4.526 0 0M-17.261 0C-17.261 4.988-13.84 8.189-8.035 8.189-2.229 8.189 1.192 4.988 1.192 0 1.192-4.988-2.229-8.19-8.035-8.19-13.84-8.19-17.261-4.988-17.261 0"/>
<path transform="matrix(1,0,0,-1,74.439,612.97)" d="M0 0C0 4.326-3.377 6.665-8.056 6.665H-14.038V-6.644H-8.056C-3.377-6.644 0-4.327 0 0M1.17 0C1.17-4.724-2.406-7.726-7.99-7.726H-15.186V7.726H-7.99C-2.406 7.726 1.17 4.724 1.17 0"/>
<path transform="matrix(1,0,0,-1,104.8188,612.97)" d="M0 0C0 4.524-3.178 7.108-8.035 7.108-12.912 7.108-16.091 4.524-16.091 0-16.091-4.526-12.912-7.108-8.035-7.108-3.178-7.108 0-4.526 0 0M-17.261 0C-17.261 4.988-13.84 8.189-8.035 8.189-2.229 8.189 1.192 4.988 1.192 0 1.192-4.988-2.229-8.19-8.035-8.19-13.84-8.19-17.261-4.988-17.261 0"/>
<path transform="matrix(1,0,0,-1,135.0655,605.24417)" d="M0 0V-15.452H-1.015L-14.812-1.457V-15.452H-15.937V0H-14.656L-1.126-13.752V0Z"/>
<path transform="matrix(1,0,0,-1,163.413,606.28176)" d="M0 0H-7.549V-14.414H-8.697V0H-16.223V1.038H0Z"/>
<path transform="matrix(1,0,0,-1,190.4181,612.97)" d="M0 0C0 4.524-3.178 7.108-8.035 7.108-12.912 7.108-16.091 4.524-16.091 0-16.091-4.526-12.912-7.108-8.035-7.108-3.178-7.108 0-4.526 0 0M-17.261 0C-17.261 4.988-13.84 8.189-8.035 8.189-2.229 8.189 1.192 4.988 1.192 0 1.192-4.988-2.229-8.19-8.035-8.19-13.84-8.19-17.261-4.988-17.261 0"/>
<path transform="matrix(1,0,0,-1,218.0824,619.6137)" d="M0 0V-1.082H-13.354V14.37H-12.207V0Z"/>
<path transform="matrix(1,0,0,-1,244.9767,612.97)" d="M0 0C0 4.524-3.178 7.108-8.035 7.108-12.912 7.108-16.091 4.524-16.091 0-16.091-4.526-12.912-7.108-8.035-7.108-3.178-7.108 0-4.526 0 0M-17.261 0C-17.261 4.988-13.84 8.189-8.035 8.189-2.229 8.189 1.192 4.988 1.192 0 1.192-4.988-2.229-8.19-8.035-8.19-13.84-8.19-17.261-4.988-17.261 0"/>
<path transform="matrix(1,0,0,-1,275.9959,616.61318)" d="M0 0C-1.147-2.604-4.26-4.547-8.587-4.547-14.48-4.547-17.901-1.323-17.901 3.643-17.901 8.631-14.48 11.832-8.63 11.832-4.922 11.832-2.384 10.508-.861 8.544L-1.854 7.858C-3.289 9.757-5.54 10.751-8.63 10.751-13.553 10.751-16.731 8.256-16.731 3.643-16.731-.948-13.531-3.465-8.564-3.465-5.165-3.465-2.318-2.229-1.147 .311V2.65H-8.741V3.709H0Z"/>
<path transform="matrix(1,0,0,-1,0,1080)" d="M289.025 474.756H290.172V459.30403H289.025Z"/>
<path transform="matrix(1,0,0,-1,316.4097,615.0667)" d="M0 0-4.9 8.762-9.778 0ZM.574-1.061H-10.352L-12.891-5.629H-14.17L-5.518 9.823H-4.238L4.415-5.629H3.134Z"/>
<path transform="matrix(1,0,0,-1,362.6973,619.6137)" d="M0 0V-1.082H-14.546V14.37H-.221V13.309H-13.399V7.328H-2.098V6.245H-13.399V0Z"/>
<path transform="matrix(1,0,0,-1,390.6276,616.39187)" d="M0 0C0-2.693-2.782-4.768-7.836-4.768-11.412-4.768-14.612-3.642-16.621-1.457L-15.782-.639C-13.884-2.736-11.081-3.686-7.792-3.686-3.532-3.686-1.17-2.163-1.17-.066-1.17 2.075-3.752 2.672-8.189 3.09-12.184 3.465-16.069 4.304-16.069 7.219-16.069 10.044-12.361 11.61-8.388 11.61-5.033 11.61-2.428 10.53-.817 8.896L-1.722 8.146C-3.267 9.801-5.607 10.507-8.344 10.53-11.324 10.551-14.878 9.514-14.878 7.24-14.878 5.099-11.655 4.525-7.792 4.172-3.179 3.775 0 2.891 0 0"/>
<path transform="matrix(1,0,0,-1,418.0721,609.99099)" d="M0 0C0 2.363-1.766 3.686-4.635 3.686H-13.531V-3.708H-4.635C-1.766-3.708 0-2.384 0 0M1.17 0C1.17-2.958-1.06-4.767-4.569-4.767H-13.531V-10.705H-14.679V4.747H-4.569C-1.06 4.747 1.17 2.936 1.17 0"/>
<path transform="matrix(1,0,0,-1,446.4428,619.6137)" d="M0 0V-1.082H-14.546V14.37H-.221V13.309H-13.398V7.328H-2.097V6.245H-13.398V0Z"/>
<path transform="matrix(1,0,0,-1,473.5569,617.0097)" d="M0 0 1.081-.552C-.376-2.781-2.958-4.15-6.645-4.15-12.384-4.15-15.805-.927-15.805 4.04-15.805 9.006-12.384 12.228-6.6 12.228-2.958 12.228-.376 10.86 1.081 8.631L0 8.079C-1.324 10.132-3.598 11.148-6.622 11.148-11.456 11.148-14.635 8.631-14.635 4.04-14.635-.552-11.456-3.068-6.622-3.068-3.598-3.068-1.303-2.052 0 0"/>
<path transform="matrix(1,0,0,-1,0,1080)" d="M487.338 474.756H488.48503V459.30403H487.338Z"/>
<path transform="matrix(1,0,0,-1,514.7225,615.0667)" d="M0 0-4.9 8.762-9.778 0ZM.574-1.061H-10.352L-12.89-5.629H-14.17L-5.518 9.823H-4.238L4.415-5.629H3.134Z"/>
<path transform="matrix(1,0,0,-1,544.5504,619.6137)" d="M0 0V-1.082H-13.354V14.37H-12.207V0Z"/>
<path transform="matrix(1,0,0,-1,0,1080)" d="M556.699 474.756H557.847V459.30403H556.699Z"/>
<path transform="matrix(1,0,0,-1,586.1588,606.10488)" d="M0 0-13.906-13.532H.353V-14.591H-15.65V-13.709L-1.744-.177H-15.253V.861H0Z"/>
<path transform="matrix(1,0,0,-1,611.1093,615.0667)" d="M0 0-4.9 8.762-9.778 0ZM.574-1.061H-10.352L-12.89-5.629H-14.17L-5.518 9.823H-4.238L4.415-5.629H3.134Z"/>
<path transform="matrix(1,0,0,-1,642.7695,612.97)" d="M0 0C0 4.326-3.377 6.665-8.056 6.665H-14.038V-6.644H-8.056C-3.377-6.644 0-4.327 0 0M1.17 0C1.17-4.724-2.406-7.726-7.99-7.726H-15.186V7.726H-7.99C-2.406 7.726 1.17 4.724 1.17 0"/>
<path transform="matrix(1,0,0,-1,668.2281,615.0667)" d="M0 0-4.901 8.762-9.78 0ZM.573-1.061H-10.353L-12.891-5.629H-14.171L-5.518 9.823H-4.238L4.415-5.629H3.134Z"/>
</g>
</g>
</svg>
